HIERARCHY
ROOT Hips
{
	OFFSET	0.00	0.00	0.00
	CHANNELS 6 Xposition Yposition Zposition Zrotation Xrotation Yrotation
	JOINT Spine
	{
		OFFSET	 0.00	0.01	 0.00
		CHANNELS 3 Zrotation Xrotation Yrotation
		JOINT Spine1
		{
			OFFSET	 0.00	 2.45913012437421	 0.00
			CHANNELS 3 Zrotation Xrotation Yrotation
            JOINT Neck
            {
                OFFSET	 0.00	 2.48462964506057	 0.00
                CHANNELS 3 Zrotation Xrotation Yrotation
                JOINT Head
                {
                    OFFSET	 0.00	 0.927524780924562	 0.00
                    CHANNELS 3 Zrotation Xrotation Yrotation
                    End Site 
                    {
                        OFFSET	 0.00	 1.14999962169752	 0.00
                    }
                }
            }
			JOINT LeftShoulder
			{
				OFFSET	 0.00	 2.48462964506057	 0.00
				CHANNELS 3 Zrotation Xrotation Yrotation
				JOINT LeftUpArm
				{
					OFFSET	 0.00	 1.24881979654096	 0.00
					CHANNELS 3 Zrotation Xrotation Yrotation
					JOINT LeftForeArm
					{
						OFFSET	 0.00	2.59758046908119	 0.00
						CHANNELS 3 Zrotation Xrotation Yrotation
						JOINT LeftHand
						{
							OFFSET	 0.00	2.45542024364365	 0.00
							CHANNELS 3 Zrotation Xrotation Yrotation
							JOINT LeftHandThumb 
							{
								OFFSET	 0.00	0.00	 0.00
								CHANNELS 3 Zrotation Xrotation Yrotation
								End Site
								{
									OFFSET	 0.00	0.00	1.00000003353624
								}
							}
							JOINT L_Wrist_End 
							{
								OFFSET	 0.00	0.99999967115358	 0.00
								CHANNELS 3 Zrotation Xrotation Yrotation
								End Site 
								{
									OFFSET	 0.00	 0.00	 0.00
								}
							}
						}
					}
				}
			}
			JOINT RightShoulder
			{
				OFFSET	 0.00	 2.48462964506057	 0.00
				CHANNELS 3 Zrotation Xrotation Yrotation
				JOINT RightUpArm
				{
					OFFSET	 0.00	 1.24881979654096	 0.00
					CHANNELS 3 Zrotation Xrotation Yrotation
					JOINT RightForeArm
					{
						OFFSET	 0.00	2.59758046908119	 0.00
						CHANNELS 3 Zrotation Xrotation Yrotation
						JOINT RightHand
						{
							OFFSET	 0.00	2.45542024364365	 0.00
							CHANNELS 3 Zrotation Xrotation Yrotation
							JOINT RightHandThumb 
							{
								OFFSET	 0.00	0.00	 0.00
								CHANNELS 3 Zrotation Xrotation Yrotation
								End Site
								{
									OFFSET	 0.00	0.00	1.00000003353624
								}
							}
							JOINT R_Wrist_End 
							{
								OFFSET	 0.00	0.99999967115358	 0.00
								CHANNELS 3 Zrotation Xrotation Yrotation
								End Site 
								{
									OFFSET	 0.00	 0.00	 0.00
								}
							}
						}
					}
				}
			}
		}
	}
	JOINT LeftUpLeg
	{
		OFFSET	 1.2719394002717	 0.00	 0.00
		CHANNELS 3 Zrotation Xrotation Yrotation
		JOINT LeftLowLeg
		{
			OFFSET	 0.00	-4.3429100912261	 0.00
			CHANNELS 3 Zrotation Xrotation Yrotation
			JOINT LeftFoot
			{
				OFFSET	 0.00	-4.48767017425826	 0.00
				CHANNELS 3 Zrotation Xrotation Yrotation
				JOINT LeftToeBase
                {
                    OFFSET	 0.00	0.00	 1.51507020887566
                    CHANNELS 3 Zrotation Xrotation Yrotation
                    End Site 
                    {
                        OFFSET	 0.00	0.00	 0.75000010571191
                    }
                }
			}
		}
	}
	JOINT RightUpLeg
	{
		OFFSET	 -1.2719393604653	 0.00	 0.00
		CHANNELS 3 Zrotation Xrotation Yrotation
		JOINT RightLowLeg
		{
			OFFSET	 0.00	-4.3429100912261	 0.00
			CHANNELS 3 Zrotation Xrotation Yrotation
			JOINT RightFoot
			{
				OFFSET	 0.00	-4.48767017425826	 0.00
				CHANNELS 3 Zrotation Xrotation Yrotation
				JOINT RightToeBase
                {
                    OFFSET	 0.00	0.00	 1.51507020887566
                    CHANNELS 3 Zrotation Xrotation Yrotation
                    End Site 
                    {
                        OFFSET	 0.00	0.00	 0.749999965609858
                    }
                }   
			}
		}
	}
}
MOTION 
Frames:	15 
Frame Time: 0.02 
 1.4809700012207032 -3.1818701171875 9.360390014648438 -163.396 72.5782 165.497 7.42928 -25.5748 0.13494 -3.89206 7.01937 1.85456 9.01487 34.7111 0.995295 -43.3907 -75.1706 1050.4 -119.1127 0.801471 10.0402 -42.3147 10.765 -3.06107 0.0 9.81206 0.0 9.41089 -9.91426 13.0523 0.0 0.0 0.0 0.0 0.0 0.0 120.866104 -3.99514 -3.59652 44.3422 5.84178 -369.363 0.0 15.3819 0.0 -3.19038 -4.37535 2.65557 0.0 0.0 0.0 0.0 0.0 0.0 2.52856 -12.1507 -22.098 0.0 4.45889 0.0 -0.779377 -4.079399 21.7346 0.0 -10.66665 0.0 6.92436 -11.3292 385.087 0.0 4.05975 0.0 3.98431 2.3149996 -29.109 0.0 -19.75495 0.0 
  1.480290069580078 -3.182139892578125 9.360800170898438 -163.431 72.6451 165.44 7.42838 -25.6333 0.18099 -3.93881 7.06936 1.92185 9.17109 34.8672 0.817777 -42.8749 -75.0199 1050.89 -119.1269 0.844788 10.0799 -42.1562 10.9789 -3.24992 0.0 10.4061 0.0 9.94295 -9.64267 12.1207 0.0 0.0 0.0 0.0 0.0 0.0 120.7997 -3.88483 -3.66267 44.3075 6.07595 -369.649 0.0 15.6431 0.0 -3.39112 -4.26283 2.80202 0.0 0.0 0.0 0.0 0.0 0.0 2.51266 -12.1047 -21.9203 0.0 4.53021 0.0 -0.752061 -4.0891 21.6459 0.0 -10.76469 0.0 6.92715 -11.2859 385.209 0.0 4.09865 0.0 4.0126 2.3068 -29.13 0.0 -19.75681 0.0 
  1.480780029296875 -3.1825900268554688 9.360980224609374 -163.413 72.7255 165.384 7.45701 -25.664 0.228281 -4.02406 7.10161 1.94731 9.28544 35.0249 0.692447 -42.47 -74.894 1051.26 -119.1198 0.835075 10.0978 -42.0641 11.1373 -3.44675 0.0 10.8869 0.0 10.3923 -9.48055 11.535 0.0 0.0 0.0 0.0 0.0 0.0 120.7664 -3.77914 -3.68554 44.2663 6.19092 -369.958 0.0 15.9139 0.0 -3.4438 -4.5192 2.39134 0.0 0.0 0.0 0.0 0.0 0.0 2.48962 -12.0384 -21.919 0.0 4.5813 0.0 -0.733476 -4.1019993 21.6848 0.0 -10.75443 0.0 6.9175 -11.2181 385.234 0.0 4.12184 0.0 4.02462 2.3028002 -29.1142 0.0 -19.78001 0.0 
  1.4807000732421876 -3.184840087890625 9.36093017578125 -163.359 72.7939 165.301 7.45965 -25.7365 0.262528 -4.04576 7.17313 2.00352 9.35776 35.1476 0.577076 -42.1187 -74.7415 1051.57 -119.136 0.840543 10.0934 -42.0225 11.208 -3.54954 0.0 11.2556 0.0 10.6928 -9.39251 11.1842 0.0 0.0 0.0 0.0 0.0 0.0 120.7399 -3.76478 -3.66608 44.217 6.25755 -370.382 0.0 15.9842 0.0 -3.44982 -4.29137 2.56201 0.0 0.0 0.0 0.0 0.0 0.0 2.48898 -11.9611 -21.9072 0.0 4.61206 0.0 -0.722358 -4.1287994 21.7046 0.0 -10.75149 0.0 6.92624 -11.1461 385.286 0.0 4.14591 0.0 4.02946 2.2855997 -29.1349 0.0 -19.77305 0.0 
  1.4807000732421876 -3.1868701171875 9.360819702148438 -163.344 72.8283 165.28 7.45999 -25.7955 0.289959 -4.0616 7.20788 2.04833 9.38835 35.234 0.505796 -41.9559 -74.6365 1051.69 -119.1561 0.822045 10.0968 -41.9887 11.2199 -3.52029 0.0 11.4483 0.0 10.7313 -9.36098 10.9644 0.0 0.0 0.0 0.0 0.0 0.0 120.7449 -3.77805 -3.67067 44.1786 6.27055 -370.562 0.0 16.0194 0.0 -3.40735 -4.29706 1.58773 0.0 0.0 0.0 0.0 0.0 0.0 2.48157 -11.9198 -21.9069 0.0 4.62884 0.0 -0.717482 -4.1441994 21.7127 0.0 -10.7493 0.0 6.9254 -11.1038 385.339 0.0 4.1574 0.0 4.03236 2.2673998 -29.176 0.0 -19.7743 0.0 
  1.4806900024414062 -3.190469970703125 9.3602197265625 -163.322 72.8452 165.263 7.46614 -25.9062 0.323762 -4.09033 7.24297 2.10066 9.43126 35.3636 0.421109 -41.7665 -74.5135 1051.82 -119.1997 0.808907 10.1747 -41.9524 11.1521 -3.42251 0.0 11.7241 0.0 10.7816 -9.4907 11.0392 0.0 0.0 0.0 0.0 0.0 0.0 120.769196 -3.78497 -3.71534 44.1538 6.2342 -370.591 0.0 15.9619 0.0 -3.12597 -4.34771 1.90048 0.0 0.0 0.0 0.0 0.0 0.0 2.48133 -11.8833 -21.9152 0.0 4.63618 0.0 -0.697388 -4.1686 21.722 0.0 -10.75231 0.0 6.93255 -11.0686 385.415 0.0 4.17444 0.0 4.02675 2.2347002 -29.256 0.0 -19.78784 0.0 
  1.480570068359375 -3.1952398681640624 9.359190063476563 -163.229 72.8712 165.234 7.47258 -26.0362 0.350266 -4.14399 7.31732 2.14761 9.52386 35.4559 0.285709 -41.5279 -74.3977 1051.99 -119.2675 0.771407 10.245 -41.8983 10.9656 -3.01824 0.0 12.0075 0.0 10.5768 -9.65798 11.0552 0.0 0.0 0.0 0.0 0.0 0.0 120.8733 -3.83333 -3.73399 44.088 6.03915 -370.743 0.0 15.9272 0.0 -3.01733 -4.35716 1.58844 0.0 0.0 0.0 0.0 0.0 0.0 2.48797 -11.8345 -22.0013 0.0 4.64397 0.0 -0.702738 -4.2192993 21.7459 0.0 -10.73481 0.0 6.94417 -11.0034 385.4 0.0 4.17839 0.0 4.00405 2.1914997 -29.3112 0.0 -19.76681 0.0 
  1.480469970703125 -3.1994000244140626 9.358170166015626 -163.158 72.8837 165.228 7.4636 -26.1475 0.352417 -4.17363 7.39034 2.18133 9.5786 35.4882 0.206584 -41.3541 -74.3282 1052.09 -119.348495 0.713712 10.379 -41.8486 10.7826 -2.61799 0.0 12.2376 0.0 10.4221 -9.72949 11.8149 0.0 0.0 0.0 0.0 0.0 0.0 120.9421 -3.86921 -3.77432 44.0929 5.82123 -370.773 0.0 15.7872 0.0 -2.82319 -4.38552 1.67878 0.0 0.0 0.0 0.0 0.0 0.0 2.49322 -11.8111 -21.9795 0.0 4.659 0.0 -0.689984 -4.2572994 21.6658 0.0 -10.73295 0.0 6.9515 -10.9577 385.368 0.0 4.18169 0.0 3.9956 2.1449003 -29.3407 0.0 -19.778759 0.0 
  1.4812699890136718 -3.2029901123046876 9.35708984375 -163.102 72.7792 165.317 7.45121 -26.3632 0.319815 -4.18232 7.47112 2.19337 9.62088 35.4979 0.142035 -41.241 -74.2799 1052.13 -119.4624 0.626521 10.4932 -41.7995 10.547 -2.1246 0.0 12.4111 0.0 10.039 -9.68739 12.3683 0.0 0.0 0.0 0.0 0.0 0.0 120.9884 -3.93263 -3.74013 44.14 5.54796 -370.859 0.0 15.6276 0.0 -2.77767 -4.53284 1.49166 0.0 0.0 0.0 0.0 0.0 0.0 2.49817 -11.9247 -22.1087 0.0 4.68596 0.0 -0.700847 -4.301901 21.6465 0.0 -10.72744 0.0 6.95822 -11.0139 385.245 0.0 4.15591 0.0 3.98018 2.1070004 -29.3517 0.0 -19.78334 0.0 
  1.4807400512695312 -3.2074398803710937 9.35655029296875 -163.033 72.8497 165.301 7.41339 -26.3997 0.324035 -4.2026 7.54185 2.25295 9.71695 35.5428 0.0551739 -41.2197 -74.2947 1052.1 -119.5423 0.51556 10.5528 -41.8233 10.2582 -1.63063 0.0 12.4784 0.0 9.79869 -9.71632 13.0559 0.0 0.0 0.0 0.0 0.0 0.0 121.0609 -4.02509 -3.76498 44.2118 5.29587 -370.829 0.0 15.3675 0.0 -2.66176 -4.91458 -0.786806 0.0 0.0 0.0 0.0 0.0 0.0 2.49915 -11.8208 -22.1125 0.0 4.65964 0.0 -0.704856 -4.3108006 21.6003 0.0 -10.730761 0.0 6.95413 -10.9123 385.214 0.0 4.15784 0.0 3.93973 2.0885 -29.3903 0.0 -19.78453 0.0 
  1.4820799255371093 -3.208810119628906 9.3560400390625 -162.936 72.8009 165.352 7.43757 -26.4553 0.346165 -4.28172 7.49838 2.24594 9.84367 35.6345 -0.0343256 -41.2825 -74.3578 1051.98 -119.608 0.407666 10.6236 -41.8597 9.9073 -0.966282 0.0 12.4608 0.0 9.47784 -9.7649 13.3845 0.0 0.0 0.0 0.0 0.0 0.0 121.11 -4.12475 -3.73148 44.3733 4.94019 -370.732 0.0 15.0155 0.0 -2.39454 -5.06954 0.104328 0.0 0.0 0.0 0.0 0.0 0.0 2.49053 -11.9051 -22.2647 0.0 4.71497 0.0 -0.690592 -4.3353004 21.6112 0.0 -10.71825 0.0 6.95422 -10.9326 385.12 0.0 4.14592 0.0 3.96735 2.0453997 -29.4167 0.0 -19.79125 0.0 
  1.4821099853515625 -3.216669921875 9.355980224609375 -162.881 72.9369 165.257 7.43117 -26.4811 0.42616 -4.32541 7.63877 2.37062 10.001 35.6609 -0.163691 -41.1262 -74.3807 1052.07 -119.6064 0.322904 10.6307 -42.0382 9.54156 -0.624935 0.0 12.2917 0.0 9.15587 -9.85646 14.0016 0.0 0.0 0.0 0.0 0.0 0.0 121.092896 -4.23618 -3.69241 44.6114 4.54302 -370.697 0.0 14.6986 0.0 -2.35892 -5.06493 -0.677104 0.0 0.0 0.0 0.0 0.0 0.0 2.49317 -11.667 -22.193 0.0 4.62034 0.0 -0.619793 -4.2971 21.6355 0.0 -10.729441 0.0 6.93995 -10.7405 385.195 0.0 4.12901 0.0 3.94184 2.0383997 -29.4708 0.0 -19.79672 0.0 
  1.4821600341796874 -3.219280090332031 9.355549926757812 -162.953 72.8071 165.348 7.42048 -26.6366 0.468783 -4.32784 7.63486 2.45911 10.1399 35.6848 -0.280987 -40.9797 -74.395 1052.1 -119.6388 0.198755 10.6354 -42.2142 9.17611 -0.450036 0.0 12.0307 0.0 8.7232 -9.96264 14.7959 0.0 0.0 0.0 0.0 0.0 0.0 121.0429 -4.31523 -3.69904 44.8886 4.14155 -370.513 0.0 14.2949 0.0 -2.23543 -5.06473 -1.21483 0.0 0.0 0.0 0.0 0.0 0.0 2.50096 -11.7858 -22.1966 0.0 4.62043 0.0 -0.597811 -4.3129997 21.6368 0.0 -10.72278 0.0 6.95434 -10.8578 385.232 0.0 4.14186 0.0 3.93749 2.0176 -29.5127 0.0 -19.81061 0.0 
  1.483300018310547 -3.218909912109375 9.355070190429688 -162.84 72.7057 165.452 7.4085 -26.6811 0.435533 -4.38039 7.53239 2.41733 10.3112 35.7253 -0.414314 -40.8038 -74.4245 1052.14 -119.6461 0.0670834 10.6412 -42.4095 8.77542 -0.306644 0.0 11.7425 0.0 8.34544 -10.1663 15.6418 0.0 0.0 0.0 0.0 0.0 0.0 121.0282 -4.39181 -3.71598 45.1292 3.7337 -370.568 0.0 13.8878 0.0 -2.05782 -5.21885 -1.4851 0.0 0.0 0.0 0.0 0.0 0.0 2.48379 -11.9759 -22.407 0.0 4.74254 0.0 -0.637474 -4.3696003 21.6169 0.0 -10.71203 0.0 6.95858 -10.9303 385.02 0.0 4.11508 0.0 3.92939 2.0023003 -29.4995 0.0 -19.807579 0.0 
  1.483489990234375 -3.218070068359375 9.354910278320313 -162.74 72.6795 165.497 7.38931 -26.6452 0.421687 -4.43021 7.45854 2.40101 10.4396 35.7429 -0.48043 -40.6721 -74.493 1052.09 -119.6374 -0.0762704 10.5668 -42.6232 8.32398 -0.099406 0.0 11.4637 0.0 8.04135 -10.4643 16.5603 0.0 0.0 0.0 0.0 0.0 0.0 120.9872 -4.44051 -3.72584 45.4505 3.3383 -370.319 0.0 13.3448 0.0 -1.76935 -5.31719 -2.29926 0.0 0.0 0.0 0.0 0.0 0.0 2.46964 -12.0757 -22.554 0.0 4.84711 0.0 -0.64713 -4.4004 21.603 0.0 -10.71224 0.0 6.9654 -10.9523 384.874 0.0 4.12071 0.0 3.92702 1.9840002 -29.4905 0.0 -19.80147 0.0 
